<svg id="Layer_1" data-name="Layer 1" xmlns="http://www.w3.org/2000/svg" viewBox="0 0 593.78 593.78"><defs><style>.cls-1{fill:#f49739;}</style></defs><title>aaaa</title><path class="cls-1" d="M582.62,265.51a2.22,2.22,0,0,0-.89.3,391.27,391.27,0,0,0-42,18.68q-20,10.39-48.19,11.27a140.64,140.64,0,0,1-25.66-29.21q-11.12-16.76-14.67-39A311.27,311.27,0,0,1,515,240l25.5-78.59-29.06-6.82a155.81,155.81,0,0,0-29.66-3.85h-.59q-19.27,0-35,19.27-16.31,19.88-25.64,47.45a186.43,186.43,0,0,0-9.94,56.34,21.39,21.39,0,0,0-.3,3.56q0,26.4,11,43c-12.65,3.56-61.86,16.71-81.44,19.77l-.1,0a454.67,454.67,0,0,0,17.18-60.35q16.32-75.62-25.8-118.62-5.64-5.34-15.86-9.19t-17.35,4.15a139.53,139.53,0,0,0-23.72,37.36q-9.19,21.08-19,40.63-12.16,22.85.89,37.07,7.71,8.9,24.46,10.23a102.88,102.88,0,0,0,31.88-2.22q5.93,8.61,7.27,26.1T321.05,335q-16.6,15.43-47.74,31.73A224.56,224.56,0,0,1,210.88,389q-31.29,5.93-55.9-4.16t-27.87-47.74q-2.39-23.43,2.81-49.82A317.54,317.54,0,0,0,136,240.07q0-10.38-11-9.19-27.57,4.44-47.74,16a208.15,208.15,0,0,0-36.78,26.68q-8.89,21.36-16.31,43.3T9.67,361.06q32-43.29,86.59-51.89,5.05-.89,6.23,5A83.8,83.8,0,0,1,104,324a163.12,163.12,0,0,1-3.26,34.1Q89.75,415.64,111,444t56.34,31.58q35.15,3.25,75.18-16.46a172,172,0,0,0,53.74-41.55q58.32-12.39,122.57-27.32a547.61,547.61,0,0,0,135.37-51.15q.58-1.79,6.67-14.09t12-26q5.94-13.63,9.49-24.32a22.65,22.65,0,0,0,1.79-7.12C584.11,266.21,583.61,265.51,582.62,265.51Z"/><path class="cls-1" d="M216.94,300.77q12.76-15.82,25.53-32.23l-43.78-41Q185.93,243.63,173,259.42t-25.39,31.92l43.78,41Q204.17,316.57,216.94,300.77Z"/><path class="cls-1" d="M222.22,191q12.76-15.81,25.53-32.23l-43.78-41q-12.76,16.11-25.68,31.92T152.9,181.62l43.78,41Z"/></svg>